<?xml version="1.0" standalone="no"?>
<!DOCTYPE svg PUBLIC "-//W3C//DTD SVG 20010904//EN"
 "http://www.w3.org/TR/2001/REC-SVG-20010904/DTD/svg10.dtd">
<svg version="1.0" xmlns="http://www.w3.org/2000/svg"
 width="1362.000000pt" height="494.000000pt" viewBox="0 0 1362.000000 494.000000"
 preserveAspectRatio="xMidYMid meet">

<g transform="translate(0.000000,494.000000) scale(0.100000,-0.100000)"
fill="#000000" stroke="none">
<path d="M2480 4934 c-258 -23 -425 -55 -632 -124 -904 -300 -1541 -1069
-1675 -2025 -21 -148 -21 -482 0 -630 55 -391 194 -755 408 -1070 37 -55 81
-114 96 -131 15 -16 23 -23 17 -15 -26 35 -73 141 -96 211 -21 69 -23 91 -22
270 2 176 4 204 27 283 47 164 140 295 275 385 l62 43 0 163 c0 90 2 183 5
207 6 42 4 45 -32 70 -21 14 -53 51 -71 82 -54 90 -67 151 -66 322 0 134 3
160 28 240 15 50 41 114 57 143 l30 54 -15 68 c-23 101 -21 272 5 373 29 115
90 226 163 300 71 72 138 111 227 131 57 14 72 14 129 0 124 -28 223 -116 260
-229 l11 -35 52 26 c141 72 339 126 602 165 134 20 485 17 605 -5 193 -35 333
-76 445 -130 l110 -52 29 63 c51 111 124 169 248 198 56 13 71 13 126 0 180
-42 312 -181 382 -400 30 -95 38 -290 16 -394 l-15 -73 24 -32 c38 -50 91
-174 115 -272 58 -228 8 -431 -130 -530 -34 -24 -50 -43 -50 -57 0 -12 7 -98
15 -192 8 -93 15 -179 15 -190 0 -13 16 -30 43 -47 135 -85 238 -235 287 -418
20 -73 23 -108 23 -245 -1 -143 -4 -169 -28 -250 -73 -246 -245 -431 -476
-512 -39 -13 -131 -38 -203 -54 l-131 -30 -1210 0 -1210 -1 -114 26 c-233 53
-317 90 -430 190 -31 27 -9 1 49 -58 385 -395 883 -644 1445 -723 148 -21 482
-21 630 0 562 79 1060 328 1446 724 377 386 609 862 686 1408 21 148 21 482 0
630 -133 947 -761 1713 -1654 2019 -151 51 -320 91 -473 111 -109 15 -381 26
-460 19z"/>
<path d="M1263 4069 c-86 -42 -157 -153 -188 -293 -23 -104 -16 -210 20 -316
l28 -78 -31 -38 c-40 -50 -81 -134 -98 -198 -34 -126 -25 -314 17 -382 22 -37
73 -64 118 -64 l31 0 -5 -87 c-8 -154 -15 -354 -15 -483 l0 -126 -52 -26 c-87
-42 -174 -114 -217 -179 -51 -77 -77 -159 -92 -296 -40 -371 123 -610 469
-686 96 -22 104 -22 1307 -21 1075 1 1220 3 1303 18 270 47 445 182 523 403
30 84 38 283 15 387 -36 162 -129 289 -261 357 -54 29 -66 39 -70 64 -4 28
-45 572 -48 644 -2 34 -1 34 56 46 32 6 70 20 85 31 122 89 85 385 -72 578
l-48 58 26 80 c51 152 43 305 -23 442 -93 197 -270 248 -343 98 -17 -36 -24
-71 -28 -153 -5 -90 -9 -111 -29 -141 l-24 -35 -86 67 c-139 109 -289 185
-451 229 -392 106 -939 57 -1281 -114 -80 -40 -206 -124 -234 -155 -25 -28
-31 -26 -54 23 -16 32 -21 63 -21 118 0 197 -96 293 -227 228z m1701 -169
c396 -85 673 -304 831 -658 63 -140 76 -196 82 -362 9 -247 -29 -692 -67 -778
l-20 -45 -128 7 c-111 5 -2031 8 -2217 3 l-70 -2 -21 65 c-12 36 -31 135 -44
220 -20 132 -23 196 -23 430 -1 250 1 282 20 350 47 166 142 327 265 450 198
198 444 299 838 344 19 2 130 3 245 1 169 -3 229 -7 309 -25z m-1761 -643 c15
-19 17 -29 9 -39 -24 -30 -55 -132 -78 -258 -13 -73 -28 -138 -34 -144 -34
-34 -47 207 -16 309 21 72 74 167 89 162 6 -2 20 -15 30 -30z m2825 -9 c72
-106 112 -219 112 -318 0 -55 -15 -100 -36 -107 -10 -3 -49 112 -75 222 -15
61 -54 153 -76 177 -15 17 -15 20 7 43 13 14 27 25 31 25 5 0 21 -19 37 -42z
m-300 -1283 c403 -18 592 -183 592 -516 0 -92 -21 -200 -52 -266 -31 -67 -139
-171 -218 -211 -36 -17 -101 -42 -145 -53 -77 -21 -107 -22 -860 -30 -965 -9
-1722 1 -1810 26 -274 76 -396 268 -366 576 17 172 59 265 153 340 112 88 233
122 493 138 141 8 2003 5 2213 -4z"/>
<path d="M2155 3358 c-58 -33 -64 -78 -8 -63 15 5 30 8 33 8 3 -1 22 -4 43 -8
46 -9 49 6 10 47 -29 30 -47 34 -78 16z"/>
<path d="M2912 3320 c-31 -30 -42 -60 -23 -60 5 0 23 6 42 14 18 8 49 11 71 9
33 -5 38 -3 38 14 0 27 -20 43 -62 50 -29 4 -39 0 -66 -27z"/>
<path d="M2143 3169 c-151 -29 -258 -134 -305 -297 -25 -86 -36 -350 -19 -434
40 -190 157 -283 356 -283 78 0 97 4 146 28 145 71 229 248 229 483 0 294
-120 479 -330 507 -19 3 -54 1 -77 -4z m152 -88 c49 -22 111 -89 137 -147 84
-190 53 -496 -62 -628 -54 -61 -101 -80 -200 -80 -74 0 -93 4 -145 30 -49 24
-66 39 -92 83 -18 30 -37 79 -44 110 -14 66 -7 299 11 381 26 114 84 195 172
239 74 37 158 42 223 12z"/>
<path d="M1990 2710 c0 -5 6 -10 13 -10 20 0 178 -74 232 -108 l50 -32 -92 7
c-62 4 -93 2 -93 -4 0 -14 34 -23 90 -23 25 0 74 -7 109 -15 38 -9 68 -12 73
-7 21 21 -155 131 -280 176 -79 28 -102 32 -102 16z"/>
<path d="M3032 3169 c-72 -14 -160 -59 -200 -103 -86 -93 -115 -174 -133 -367
-29 -326 59 -497 279 -539 217 -43 382 75 437 312 25 108 28 213 11 328 -32
207 -120 325 -273 365 -63 16 -60 16 -121 4z m129 -80 c83 -28 145 -104 181
-224 26 -84 30 -277 9 -365 -30 -121 -90 -213 -165 -253 -33 -17 -58 -21 -127
-21 -75 0 -93 4 -145 29 -109 55 -148 150 -146 355 3 267 68 412 212 471 52
21 132 24 181 8z"/>
<path d="M3190 2706 c-119 -49 -252 -128 -294 -175 -16 -18 -17 -21 -3 -26 20
-8 223 37 222 50 0 6 -27 10 -62 9 -34 0 -60 3 -57 8 9 14 141 89 196 112 48
19 66 32 56 41 -1 2 -28 -7 -58 -19z"/>
<path d="M3625 1876 c-56 -25 -105 -76 -105 -107 0 -87 133 -120 247 -63 59
30 103 79 103 116 0 11 -13 33 -29 49 -27 26 -36 29 -98 29 -50 0 -81 -6 -118
-24z m191 -41 c18 -25 1 -52 -51 -82 -71 -40 -183 -38 -199 4 -9 23 18 59 62
83 50 27 167 24 188 -5z"/>
<path d="M1393 1861 c-48 -22 -67 -51 -58 -90 18 -83 170 -128 272 -82 62 29
81 81 47 130 -41 58 -177 80 -261 42z m177 -32 c50 -22 60 -34 60 -67 0 -64
-182 -69 -241 -6 -63 67 72 123 181 73z"/>
<path d="M3246 1821 c-3 -5 1 -23 10 -40 9 -18 14 -34 13 -36 -2 -2 -49 -17
-104 -34 -380 -117 -904 -121 -1225 -9 -47 17 -86 31 -88 33 -1 1 2 14 8 29 6
16 7 34 2 43 -7 12 -14 5 -31 -31 -17 -34 -38 -55 -81 -83 -32 -21 -59 -41
-59 -45 -1 -14 34 -9 57 8 20 14 23 14 28 -3 21 -60 90 -195 137 -265 139
-214 305 -351 507 -417 179 -59 379 -25 544 93 156 111 287 303 356 522 l23
71 37 -20 c24 -14 43 -18 56 -13 19 8 19 8 0 19 -85 52 -112 78 -141 130 -30
56 -39 65 -49 48z m-1363 -132 c282 -144 869 -155 1299 -25 62 19 117 31 121
27 10 -10 -49 -174 -98 -271 -63 -127 -156 -240 -259 -316 -38 -28 -39 -28
-50 -9 -25 45 -135 142 -196 173 -70 34 -162 50 -214 35 -21 -6 -45 -3 -85 10
-82 28 -192 19 -274 -22 -47 -23 -65 -27 -75 -18 -33 27 -146 198 -198 299
-44 88 -53 112 -43 124 15 19 22 18 72 -7z"/>
<path d="M11300 3269 c-160 -22 -296 -86 -389 -184 -65 -69 -98 -140 -113
-243 -30 -206 51 -371 228 -464 91 -48 188 -79 364 -118 160 -36 188 -47 219
-86 44 -56 16 -122 -60 -144 -51 -15 -169 -12 -228 6 -62 18 -131 81 -152 138
-7 20 -20 36 -28 36 -16 0 -424 -71 -429 -75 -7 -6 49 -139 78 -184 47 -74
146 -160 234 -204 230 -114 566 -112 803 4 216 106 318 288 285 510 -20 139
-93 245 -217 314 -82 46 -151 67 -350 109 -234 49 -297 86 -277 161 13 48 53
69 136 73 124 7 200 -26 261 -112 l20 -28 193 58 c105 32 192 62 192 67 0 30
-64 131 -120 187 -76 77 -173 131 -286 160 -92 24 -261 32 -364 19z"/>
<path d="M5710 2465 l0 -795 191 0 190 0 -4 468 c-2 337 -7 478 -16 505 -28
87 1 53 59 -68 34 -71 168 -304 298 -517 l237 -388 193 0 192 0 0 795 0 795
-195 0 -195 0 0 -217 c1 -120 9 -317 19 -438 10 -121 16 -222 14 -225 -5 -6
21 -48 -279 453 l-257 427 -223 0 -224 0 0 -795z"/>
<path d="M7300 2465 l0 -795 590 0 590 0 0 190 0 190 -355 0 -355 0 0 125 0
125 290 0 290 0 0 180 0 180 -290 0 -290 0 0 120 0 120 355 0 355 0 0 180 0
180 -590 0 -590 0 0 -795z"/>
<path d="M8584 3243 c3 -10 96 -360 206 -778 110 -418 203 -768 206 -777 5
-16 24 -18 212 -18 l207 0 105 440 c57 242 107 437 110 433 4 -5 56 -203 115
-441 l108 -432 200 2 200 3 208 790 c115 435 208 791 209 793 0 1 -82 2 -182
2 l-183 0 -74 -313 c-40 -171 -89 -379 -108 -460 -20 -82 -39 -145 -43 -140
-4 4 -58 212 -121 460 l-114 453 -186 0 -187 0 -7 -27 c-4 -16 -51 -219 -106
-452 -55 -234 -101 -427 -104 -429 -3 -3 -7 -3 -9 -1 -2 2 -47 189 -100 414
-54 226 -102 429 -108 453 l-10 42 -225 0 c-209 0 -224 -1 -219 -17z"/>
</g>
</svg>
